<svg width="240" height="144" viewBox="0 0 240 144" fill="none" xmlns="http://www.w3.org/2000/svg">
<g clip-path="url(#clip0_2_21)">
<path d="M113.254 73.715L5.02899 138.65C3.69594 139.45 2 138.49 2 136.935L2.00001 7.06476C2.00001 5.51017 3.69595 4.54994 5.029 5.34978L113.254 70.285C114.549 71.0618 114.549 72.9382 113.254 73.715Z" fill="#FFF7E3" stroke="#F3EAD5" stroke-width="4"/>
<path d="M126.746 73.715L234.971 138.65C236.304 139.45 238 138.49 238 136.935L238 7.06476C238 5.51017 236.304 4.54994 234.971 5.34978L126.746 70.285C125.451 71.0618 125.451 72.9382 126.746 73.715Z" fill="#FFF7E3" stroke="#F3EAD5" stroke-width="4"/>
<path d="M99.2937 64.4048L99.8289 64H100.5H139.5H140.171L140.706 64.4048L241.206 140.405L245.961 144H240H0H-5.96055L-1.20634 140.405L99.2937 64.4048Z" fill="#FFF7E3" stroke="#F3EAD5" stroke-width="4"/>
</g>
<defs>
<clipPath id="clip0_2_21">
<rect width="240" height="144" rx="8" fill="white"/>
</clipPath>
</defs>
</svg>
