<svg width="241" height="144" viewBox="0 0 241 144" fill="none" xmlns="http://www.w3.org/2000/svg">
<circle cx="120" cy="72" r="14" fill="#FFD8ED" stroke="#F765B3" stroke-width="4"/>
<path d="M120 79.7734C119.922 79.7734 119.828 79.75 119.719 79.7031C119.615 79.6615 119.521 79.6146 119.438 79.5625C117.969 78.625 116.695 77.6432 115.617 76.6172C114.539 75.5859 113.706 74.5286 113.117 73.4453C112.534 72.3568 112.242 71.2578 112.242 70.1484C112.242 69.4557 112.352 68.8229 112.57 68.25C112.794 67.6719 113.104 67.1719 113.5 66.75C113.896 66.3281 114.357 66.0026 114.883 65.7734C115.409 65.5443 115.979 65.4297 116.594 65.4297C117.359 65.4297 118.031 65.625 118.609 66.0156C119.188 66.4062 119.651 66.9219 120 67.5625C120.354 66.9167 120.82 66.401 121.398 66.0156C121.977 65.625 122.646 65.4297 123.406 65.4297C124.021 65.4297 124.591 65.5443 125.117 65.7734C125.648 66.0026 126.109 66.3281 126.5 66.75C126.896 67.1719 127.203 67.6719 127.422 68.25C127.646 68.8229 127.758 69.4557 127.758 70.1484C127.758 71.2578 127.464 72.3568 126.875 73.4453C126.292 74.5286 125.461 75.5859 124.383 76.6172C123.31 77.6432 122.039 78.625 120.57 79.5625C120.487 79.6146 120.391 79.6615 120.281 79.7031C120.177 79.75 120.083 79.7734 120 79.7734Z" fill="#F765B3"/>
</svg>
